# xmcd CD database file
#
# Track frame offsets:
#	150
#	38248
#	59480
#	79840
#	95768
#	128430
#	147798
#	184192
#	223809
#	257444
#	289355
#
# Disc length: 4273 seconds
#
# Revision: 0
# Processed by: cddbd v1.5.2PL0 Copyright (c) Steve Scherf et al.
# Submitted via: CDex 1.70beta2
#
DISCID=a510af0b
DTITLE=Various Artist - Jazz Roads CD163 - Swing - Ben Webster Vol.5 (1957)
DYEAR=2006
DGENRE=Jazz
TTITLE0=Ben Webster Quintet - Lover Come Back To Me
TTITLE1=Ben Webster Quintet - Where Are You
TTITLE2=Ben Webster Quintet - Makin' Whoopee
TTITLE3=Ben Webster Quintet - Ill Wind
TTITLE4=Ben Webster Quintet - Late Date
TTITLE5=Ben Webster Quintet - Time On My Hands
TTITLE6=Ben Webster Quintet - Soulville
TTITLE7=Red Norvo Sextet - Sunrise Blues
TTITLE8=Red Norvo Sextet - Easy On The Eye
TTITLE9=Red Norvo Sextet - The Night Is Blue
TTITLE10=Red Norvo Sextet - Just A Mood
EXTD=YEAR: 2006
EXTT0=
EXTT1=
EXTT2=
EXTT3=
EXTT4=
EXTT5=
EXTT6=
EXTT7=
EXTT8=
EXTT9=
EXTT10=
PLAYORDER=
